<svg version="1.1" id="Layer_1" xmlns="http://www.w3.org/2000/svg" xmlns:xlink="http://www.w3.org/1999/xlink" x="0px" y="0px" viewBox="-535.2 35.8 472.4 185.2" style="enable-background:new -535.2 35.8 472.4 185.2;" xml:space="preserve">
 <style type="text/css">
  .st0{clip-path:url(#SVGID_2_);fill:#1658A5;}
	.st1{fill:#231F20;}
	.st2{fill:#FFFFFF;}
 </style>
 <g>
  <g>
   <g>
    <defs>
     <rect id="SVGID_1_" x="-535.2" y="35.8" width="472.4" height="185.2">
     </rect>
    </defs>
    <clipPath id="SVGID_2_">
     <use href="#SVGID_1_" style="overflow:visible;">
     </use>
    </clipPath>
    <path class="st0" d="M-445.9,176.6c-3.3,3.8-8,9.4-7.1,13.7l0,0c0.9,3.3,5.7,5.7,5.7,5.7l10.4,5.7l-6.6,5.7l8,2.4
				c0,0-7.6,7.6-8,8.5c-1.9,0.5-4.3,0.5-6.6,0.5c-17,0-40.6-9.9-46.3-9.9c-7.1,0-16.1,3.8-16.1,3.8l4.7-5.2c0,0-6.1,1.4-11.8,0.9
				l8-5.7c-7.1,0-13.7-2.4-16.5-4.7c0,0,13.2-0.9,31.7-0.9c7.6,0,19.8,0.9,19.8,0.9c-6.1-2.8-11.8-6.1-14.2-12.3l11.8,1.9
				c-4.7-2.8-12.3-10.4-13.2-16.5l13.2,4.7c-2.4-2.4-10.4-9.9-11.8-18.9l10.4,6.6c-2.8-2.8-9.9-17-9-21.3l9.4,6.6
				c-4.7-5.7-9.9-20.8-6.1-26.9c2.8,11.3,9.4,15.6,9.4,15.6c-4.3-6.1-13.7-28.3-4.7-37.8c2.4,21.7,11.8,29.3,11.8,29.3
				c-7.6-12.3-16.5-50.1,0-57.6c-3.3,24.1,4.7,37.3,4.7,37.3c-4.7-22.2-4.7-53.9,11.8-56.7c-8,23.6-2.4,42-2.4,42
				c-2.8-55.7,15.1-54.8,15.1-54.8s-2.8,15.6-2.8,43.9v81.3C-443.1,170.4-443.6,173.8-445.9,176.6L-445.9,176.6z M-435.1,196.4
				c7.1,0.5,12.3,0.9,17.5,1.9c1.9,0.5,2.8,2.4,2.8,3.8c-2.4-0.5-6.1-0.9-6.1-0.9v2.4c0,0,3.3-0.9,7.1-0.9c0,0,7.6,0,7.1,5.2
				c-1.9-1.4-6.1-0.9-7.6-0.5c-3.8,0.5-7.6,2.4-11.3,4.7c-3.8,1.9-8,4.3-12.8,5.7c1.9-1.9,7.6-8,7.6-8l-7.6-3.8l6.1-5.2l-9.4-5.2
				C-439.3,196-437.4,196-435.1,196.4L-435.1,196.4z M-434.6,187.9h33.5V77.8h-30.7v68.5l-9-8.5V83c0-32.1,3.8-47.2,3.8-47.2
				c-10.4,0-15.6,9.9-17,12.8c-5.7,0.5-10.4,3.8-13.2,10.4c-1.9,3.8-2.8,7.1-2.8,9c-12.3,2.8-13.2,24.6-12.3,28.3l-18.9-18.4h-34
				v110.1h30.7v-66.6l14.6,14.2c1.4,3.8,2.8,5.7,2.8,5.7l-5.7-5.2c-0.9,10.9,1.9,16.5,4.7,20.3l-7.1-6.1c-0.5,10.9,4.7,17.5,8,20.3
				l-9.4-4.7c-0.5,6.6,5.7,15.6,9.4,17.5l-8-0.9c1.9,9,8,11.8,8,11.8s-13.7,0.5-19.8,0.5c-17,0-28.3,1.4-28.3,1.4s7.6,7.6,17.5,8
				l-8.5,5.2c6.1,2.4,11.8,1.4,11.8,1.4l-5.2,6.1c0,0,15.6-6.1,22.2-5.7c5.2,0.5,29.8,9.9,46.3,9.9c11.3,0,19.4-4.3,25.5-7.6
				c3.8-1.9,7.6-3.8,10.9-4.3c6.1-0.9,8.5,1.4,8.5,1.4c0.5-2.4,2.4-9-7.1-10.4c-0.5-1.9-1.9-3.8-4.7-4.3c-5.2-0.9-27.4-2.4-27.9-2.4
				c-1.9,0-8-1.4-2.4-9.9c0.5-0.5,3.3-4.3,3.3-4.3L-434.6,187.9">
    </path>
   </g>
  </g>
  <path class="st1" d="M-265.9,116.1c2.4,0,4.7,1.9,4.7,4.3s-2.4,4.3-4.7,4.3c-2.4,0-4.7-1.9-4.7-4.3S-268.8,116.1-265.9,116.1">
  </path>
  <path class="st1" d="M-145.9,116.1c2.4,0,4.7,1.9,4.7,4.3s-2.4,4.3-4.7,4.3s-4.7-1.9-4.7-4.3S-148.8,116.1-145.9,116.1">
  </path>
  <path class="st1" d="M-298.5,139.3v16.5h-7.1V153c-1.9,1.9-4.3,3.3-8,3.3c-5.7,0-10.4-3.3-10.4-8.5c0-8,8.5-9.9,17-9.9h0.9
		c0-2.4-0.9-4.3-5.2-4.3c-2.8,0-5.7,0.9-7.6,2.8l-4.3-4.3c2.8-2.8,7.1-4.7,11.8-4.7s7.1,0.5,9.9,2.8
		C-299,133.1-298.5,136.9-298.5,139.3 M-306.1,144h-0.5c-1.4,0-4.3,0-6.6,0.9c-1.4,0.5-2.8,1.4-2.8,2.8c0,1.9,1.9,2.8,3.8,2.8
		c3.8,0,6.1-2.4,6.1-5.7V144">
  </path>
  <path class="st1" d="M-282.5,128.4v-8.5h-8v8.5h-5.2v6.6h5.2v11.8c0,3.8,0.5,6.1,2.4,8c1.4,1.4,3.8,2.4,7.1,2.4
		c1.9,0,4.3-0.5,5.7-0.9v-7.1c-0.9,0.5-2.4,0.5-4.3,0.5c-2.4,0-2.8-1.4-2.8-3.8V135h7.1v-6.6H-282.5">
  </path>
  <path class="st1" d="M-75.1,142.6v1.9h-20.3c0,2.8,3.3,5.2,7.1,5.2c3.3,0,5.2-1.4,7.1-3.3l5.2,3.8c-2.8,3.8-6.6,6.1-12.3,6.1
		c-8.5,0-15.1-5.2-15.1-14.6c0-7.6,4.7-14.6,14.2-14.6C-78.8,127.9-75.1,135.5-75.1,142.6 M-83.6,139.3c-0.5-2.8-1.9-5.2-6.1-5.2
		c-3.3,0-5.7,2.4-6.1,5.2H-83.6">
  </path>
  <polyline class="st1" points="-337.3,116.1 -337.3,143 -354.3,116.1 -364.7,116.1 -364.7,155.8 -356.2,155.8 -356.2,127.9 
		-338.7,155.8 -328.8,155.8 -328.8,116.1 -337.3,116.1 	">
  </polyline>
  <polyline class="st1" points="-161,128.4 -165.8,145.4 -170,128.4 -178.1,128.4 -182.3,145.4 -187,128.4 -195.5,128.4 -187,155.8 
		-179,155.8 -174.3,138.8 -169.1,155.8 -161.5,155.8 -152.5,128.4 -161,128.4 	">
  </polyline>
  <rect x="-270.2" y="128.4" class="st1" width="8" height="27.4">
  </rect>
  <rect x="-150.2" y="128.4" class="st1" width="8" height="27.4">
  </rect>
  <path class="st1" d="M-200.7,130.3c-1.9-1.9-3.8-2.4-6.6-2.4s-6.6,1.4-8,3.8v-2.8h-7.6v27.4h8v-15.1c0-1.9,0.5-3.3,1.4-4.3
		c0.9-0.9,1.9-1.4,3.3-1.4c1.9,0,2.8,0.5,3.3,1.4c0.9,0.9,0.9,2.8,0.9,5.7v14.2h8v-17C-197.9,135.5-198.4,132.7-200.7,130.3">
  </path>
  <path class="st1" d="M-107.7,116.1v40.2h-7.6v-2.8c-1.9,1.9-4.7,3.8-8.5,3.8c-3.8,0-7.1-1.4-9.4-3.8c-2.8-2.8-4.3-6.6-4.3-10.9
		c0-8.5,5.7-14.6,13.2-14.6c3.3,0,6.1,0.9,8.5,3.3v-15.1H-107.7L-107.7,116.1z M-115.7,142.1c0-3.8-2.4-7.6-7.1-7.6
		s-7.1,3.8-7.1,7.6s2.4,7.6,7.1,7.6S-115.7,145.9-115.7,142.1">
  </path>
  <path class="st1" d="M-227.7,142.1c0,8.5-6.1,14.6-15.1,14.6c-8.5,0-15.1-6.1-15.1-14.6c0-8.5,6.1-14.6,15.1-14.6
		C-233.8,127.9-227.7,133.6-227.7,142.1 M-242.8,134.5c-4.7,0-7.1,3.8-7.1,7.6s2.4,7.6,7.1,7.6s7.1-3.8,7.1-7.6
		C-235.7,138.3-238.1,134.5-242.8,134.5">
  </path>
  <path class="st1" d="M-71.3,125.6h1.4v-2.8h0.9l1.4,2.8h1.4l-1.9-2.8c0.9,0,1.9-0.9,1.9-1.9c0-1.4-0.9-2.4-2.4-2.4h-2.8
		L-71.3,125.6L-71.3,125.6z M-70.3,119.9h0.9c0.9,0,1.9,0,1.9,0.9s-0.9,0.9-1.9,0.9h-0.9V119.9L-70.3,119.9z M-75.5,122.3
		c0,3.3,2.8,6.1,6.1,6.1c3.3,0,6.1-2.8,6.1-6.1c0-3.3-2.8-6.1-6.1-6.1C-72.7,116.1-75.5,119-75.5,122.3 M-74.1,122.3
		c0-2.8,2.4-5.2,5.2-5.2s5.2,2.4,5.2,5.2s-2.4,5.2-5.2,5.2S-74.1,125.1-74.1,122.3">
  </path>
  <path class="st2" d="M-445.9,176.6c-3.3,3.8-8,9.4-7.1,13.7l0,0c0.9,3.3,5.7,5.7,5.7,5.7l10.4,5.7l-6.6,5.7l8,2.4
		c0,0-7.6,7.6-8,8.5c-1.9,0.5-4.3,0.5-6.6,0.5c-17,0-40.6-9.9-46.3-9.9c-7.1,0-16.1,3.8-16.1,3.8l4.7-5.2c0,0-6.1,1.4-11.8,0.9
		l8-5.7c-7.1,0-13.7-2.4-16.5-4.7c0,0,13.2-0.9,31.7-0.9c7.6,0,19.8,0.9,19.8,0.9c-6.1-2.8-11.8-6.1-14.2-12.3l11.8,1.9
		c-4.7-2.8-12.3-10.4-13.2-16.5l13.2,4.7c-2.4-2.4-10.4-9.9-11.8-18.9l10.4,6.6c-2.8-2.8-9.9-17-9-21.3l9.4,6.6
		c-4.7-5.7-9.9-20.8-6.1-26.9c2.8,11.3,9.4,15.6,9.4,15.6c-4.3-6.1-13.7-28.3-4.7-37.8c2.4,21.7,11.8,29.3,11.8,29.3
		c-7.6-12.3-16.5-50.1,0-57.6c-3.3,24.1,4.7,37.3,4.7,37.3c-4.7-22.2-4.7-53.9,11.8-56.7c-8,23.6-2.4,42-2.4,42
		c-2.8-55.7,15.1-54.8,15.1-54.8s-2.8,15.6-2.8,43.9v81.3C-443.1,170.4-443.6,173.8-445.9,176.6L-445.9,176.6z M-435.1,196.4
		c7.1,0.5,12.3,0.9,17.5,1.9c1.9,0.5,2.8,2.4,2.8,3.8c-2.4-0.5-6.1-0.9-6.1-0.9v2.4c0,0,3.3-0.9,7.1-0.9c0,0,7.6,0,7.1,5.2
		c-1.9-1.4-6.1-0.9-7.6-0.5c-3.8,0.5-7.6,2.4-11.3,4.7c-3.8,1.9-8,4.3-12.8,5.7c1.9-1.9,7.6-8,7.6-8l-7.6-3.8l6.1-5.2l-9.4-5.2
		C-439.3,196-437.4,196-435.1,196.4">
  </path>
 </g>
</svg>