<svg version="1.1" id="Layer_1" xmlns:x="ns_extend;" xmlns:i="ns_ai;" xmlns:graph="ns_graphs;" xmlns="http://www.w3.org/2000/svg" xmlns:xlink="http://www.w3.org/1999/xlink" x="0px" y="0px" viewBox="0 0 86.3 86" style="enable-background:new 0 0 86.3 86;" xml:space="preserve">
 <style type="text/css">
  .st0{filter:url(#Adobe_OpacityMaskFilter);}
	.st1{fill-rule:evenodd;clip-rule:evenodd;fill:#FFFFFF;}
	.st2{mask:url(#mask-2_1_);fill-rule:evenodd;clip-rule:evenodd;fill:#3C1053;}
	.st3{fill:#E90000;}
	.st4{fill:#C20000;}
	.st5{fill:url(#Path_9_);}
	.st6{fill:url(#Path_10_);}
	.st7{fill:url(#Path_11_);}
 </style>
 <metadata>
  <sfw xmlns="ns_sfw;">
   <slices>
   </slices>
   <sliceSourceBounds bottomLeftOrigin="true" height="86" width="86.3" x="0" y="0.4">
   </sliceSourceBounds>
  </sfw>
 </metadata>
 <g id="_x2705_-Logos">
  <g id="Logos" transform="translate(-789.000000, -711.000000)">
   <g id="NW-LOGO-HORIZONTAL-POS-RGB" transform="translate(789.000000, 711.000000)">
    <g id="NatWest-Brandmark">
     <g id="Squircle">
      <g id="Clip-2">
      </g>
      <defs>
       <filter id="Adobe_OpacityMaskFilter" filterUnits="userSpaceOnUse" x="0" y="0" width="86.3" height="86">
        <feColorMatrix type="matrix" values="1 0 0 0 0  0 1 0 0 0  0 0 1 0 0  0 0 0 1 0">
        </feColorMatrix>
       </filter>
      </defs>
      <mask maskUnits="userSpaceOnUse" x="0" y="0" width="86.3" height="86" id="mask-2_1_">
       <g class="st0">
        <polygon id="path-1_1_" class="st1" points="0,0 86.3,0 86.3,86 0,86 							">
        </polygon>
       </g>
      </mask>
      <path id="Fill-1" class="st2" d="M86.3,43c0,39.9-3.1,43-43.1,43C3.1,86,0,82.9,0,43S3.1,0,43.1,0C83.1,0,86.3,3.1,86.3,43">
      </path>
     </g>
     <g id="Cubes" transform="translate(13.037482, 15.435195)">
      <g id="Group">
       <polygon id="Path" class="st3" points="42.9,37.1 25.8,37.1 34.3,51.9 51.5,51.9 51.5,51.9 51.5,51.9 						">
       </polygon>
       <polygon id="Path_1_" class="st4" points="51.5,22.2 60.1,37.1 51.5,51.9 42.9,37.1 						">
       </polygon>
       <polygon id="Path_2_" class="st3" points="38.6,0 38.6,0 21.5,0 12.9,14.8 30,14.8 30,14.8 						">
       </polygon>
       <polygon id="Path_3_" class="st4" points="30,14.8 38.6,29.6 47.2,14.8 38.6,0 						">
       </polygon>
       <polygon id="Path_4_" class="st3" points="17.2,37 17.2,37 25.7,22.2 8.6,22.2 0,37 0,37 0,37.1 						">
       </polygon>
       <polygon id="Path_5_" class="st4" points="25.8,51.9 25.7,51.9 8.6,51.9 0,37.1 0,37 17.2,37 						">
       </polygon>
      </g>
      <linearGradient id="Path_9_" gradientUnits="userSpaceOnUse" x1="-84.8746" y1="218.0658" x2="-84.3742" y2="217.9002" gradientTransform="matrix(25.7458 0 0 -14.8129 2217.3506 3258.6074)">
       <stop offset="0" style="stop-color:#DC1405;stop-opacity:0.1">
       </stop>
       <stop offset="1" style="stop-color:#DC1405;stop-opacity:0.6">
       </stop>
      </linearGradient>
      <polygon id="Path_6_" class="st5" points="42.9,22.2 38.6,29.6 30,29.6 30,29.6 25.8,37.1 42.9,37.1 51.5,22.2 					">
      </polygon>
      <linearGradient id="Path_10_" gradientUnits="userSpaceOnUse" x1="-84.4132" y1="218.1366" x2="-84.762" y2="217.898" gradientTransform="matrix(25.7458 0 0 -14.8259 2204.4744 3254.157)">
       <stop offset="0" style="stop-color:#DC1405;stop-opacity:0.1">
       </stop>
       <stop offset="1" style="stop-color:#DC1405;stop-opacity:0.6">
       </stop>
      </linearGradient>
      <polygon id="Path_7_" class="st6" points="17.2,22.2 25.7,22.2 30,29.6 30,29.6 38.6,29.6 30,14.8 12.9,14.8 					">
      </polygon>
      <linearGradient id="Path_11_" gradientUnits="userSpaceOnUse" x1="-81.762" y1="223.4577" x2="-81.5475" y2="223.0444" gradientTransform="matrix(12.8761 0 0 -29.6421 1075.7523 6654.2739)">
       <stop offset="0" style="stop-color:#DC1405;stop-opacity:0.1">
       </stop>
       <stop offset="1" style="stop-color:#DC1405;stop-opacity:0.6">
       </stop>
      </linearGradient>
      <polygon id="Path_8_" class="st7" points="30,44.4 25.8,37.1 30,29.6 30,29.6 25.7,22.2 17.2,37 25.8,51.9 					">
      </polygon>
     </g>
    </g>
   </g>
  </g>
 </g>
</svg>